<?xml version="1.0" encoding="UTF-8" standalone="no"?>
<!-- Created with Inkscape (http://www.inkscape.org/) -->

<svg
   xmlns:dc="http://purl.org/dc/elements/1.1/"
   xmlns:cc="http://creativecommons.org/ns#"
   xmlns:rdf="http://www.w3.org/1999/02/22-rdf-syntax-ns#"
   xmlns:svg="http://www.w3.org/2000/svg"
   xmlns="http://www.w3.org/2000/svg"
   xmlns:sodipodi="http://sodipodi.sourceforge.net/DTD/sodipodi-0.dtd"
   xmlns:inkscape="http://www.inkscape.org/namespaces/inkscape"
   width="202.93828mm"
   height="97.194664mm"
   viewBox="0 0 719.07264 344.39054"
   id="svg4773"
   version="1.1"
   inkscape:version="0.91 r13725"
   sodipodi:docname="podpis4.svg">
  <defs
     id="defs4775" />
  <sodipodi:namedview
     id="base"
     pagecolor="#ffffff"
     bordercolor="#666666"
     borderopacity="1.0"
     inkscape:pageopacity="0.0"
     inkscape:pageshadow="2"
     inkscape:zoom="1.979899"
     inkscape:cx="274.11549"
     inkscape:cy="153.91181"
     inkscape:document-units="px"
     inkscape:current-layer="layer1"
     showgrid="false"
     inkscape:window-width="1914"
     inkscape:window-height="1056"
     inkscape:window-x="0"
     inkscape:window-y="18"
     inkscape:window-maximized="0"
     fit-margin-top="0"
     fit-margin-left="0"
     fit-margin-right="0"
     fit-margin-bottom="0" />
  <metadata
     id="metadata4778">
    <rdf:RDF>
      <cc:Work
         rdf:about="">
        <dc:format>image/svg+xml</dc:format>
        <dc:type
           rdf:resource="http://purl.org/dc/dcmitype/StillImage" />
        <dc:title></dc:title>
      </cc:Work>
    </rdf:RDF>
  </metadata>
  <g
     inkscape:label="Layer 1"
     inkscape:groupmode="layer"
     id="layer1"
     transform="translate(-93.162086,-171.41136)">
    <path
       style="fill:none;fill-rule:evenodd;stroke:#000000;stroke-width:10;stroke-linecap:butt;stroke-linejoin:miter;stroke-miterlimit:4;stroke-dasharray:none;stroke-opacity:1"
       d="m 217.68787,214.94574 c -0.18009,2.50755 0.49527,5.09981 0,7.57615 -1.85673,9.28365 -4.86899,15.79889 -9.09137,24.24366 -2.05508,4.11016 -4.41943,8.0587 -6.56599,12.12183 -2.5677,4.86028 -5.15999,9.70984 -7.57614,14.64721 -1.45769,2.97874 -2.70029,6.05802 -4.04062,9.09137 -1.8585,4.20608 -3.76719,8.39065 -5.55583,12.62691 -1.41063,3.34097 -2.6781,6.74065 -4.04061,10.10153 -1.1629,2.86848 -2.35703,5.72419 -3.53554,8.58629 -2.01184,4.8859 -4.09853,9.74125 -6.06091,14.64722 -0.8709,2.17724 -1.61169,4.40635 -2.52538,6.56599 -0.93924,2.22002 -2.16513,4.31613 -3.03046,6.56599 -0.82204,2.13729 -1.29617,4.39358 -2.02031,6.56599 -0.79146,2.3744 -1.67762,4.71618 -2.52538,7.07107 -0.66748,1.8541 -1.47894,3.66107 -2.0203,5.55584 -0.47168,1.65087 -0.53848,3.39989 -1.01016,5.05076 -0.54136,1.89477 -1.36932,3.69588 -2.0203,5.55584 -1.05527,3.01504 -1.90884,6.10038 -3.03046,9.09137 -0.4502,1.20055 -1.03904,2.34506 -1.51523,3.53554 -0.53423,1.33557 -0.90692,2.7371 -1.51523,4.04061 -2.63297,5.64208 -1.25814,1.4648 -4.04061,6.56599 -0.43414,0.79593 -0.576,1.72944 -1.01015,2.52538 -0.58135,1.06581 -1.34687,2.0203 -2.0203,3.03046 -0.67344,1.01015 -1.29188,2.05921 -2.02031,3.03045 -0.78895,1.05194 -1.77691,1.94934 -2.52538,3.03046 -0.77262,1.11601 -1.32195,2.37162 -2.02031,3.53554 -0.81717,1.36195 -1.70821,2.67866 -2.52538,4.04061 -0.69835,1.16392 -1.24768,2.41953 -2.0203,3.53553 -0.74847,1.08112 -1.72366,1.98822 -2.52538,3.03046 -0.88303,1.14794 -1.68359,2.35702 -2.52539,3.53553 -0.84179,1.17851 -1.701,2.34477 -2.52538,3.53554 -0.69105,0.99818 -1.26189,2.08244 -2.0203,3.03045 -0.59495,0.74369 -1.34687,1.34687 -2.02031,2.02031 -1.34687,1.34687 -2.69374,2.69374 -4.04061,4.04061 -0.67343,0.67343 -1.34687,1.34687 -2.0203,2.0203 -0.50508,0.50508 -0.89506,1.16085 -1.51523,1.51523 -0.6027,0.3444 -1.38227,0.23163 -2.02031,0.50508 -0.55794,0.23912 -1.01015,0.67343 -1.51523,1.01015 -0.84179,0.16836 -1.72157,0.20365 -2.52538,0.50508 -0.56837,0.21314 -0.93935,0.81819 -1.51523,1.01015 -0.35678,0.11893 -2.93217,0 -3.53553,0 -0.16836,0 -0.37039,0.10101 -0.50508,0 -2.36107,-1.77081 -2.260201,-3.1187 -2.525377,-6.56599 -0.2066,-2.68581 0,-5.38748 0,-8.08122 0,-10.26989 0,-20.53977 0,-30.80966 0,-3.19881 0,-6.39763 0,-9.59644 0,-8.92302 -0.721121,-17.87522 0,-26.76905 0.678787,-8.3717 3.918097,-11.77817 7.576147,-18.68782 1.58527,-2.99441 3.13113,-6.01263 4.54568,-9.09137 1.44907,-3.15384 2.63099,-6.42479 4.04061,-9.59645 23.18436,-52.16479 -8.58748,20.03734 11.11168,-23.73859 1.4243,-3.1651 2.48842,-6.49206 4.04061,-9.59644 2.689,-5.37801 6.79467,-11.52352 10.10153,-16.66752 1.51523,-2.35702 2.91703,-4.79095 4.54568,-7.07107 1.74229,-2.4392 3.87468,-4.58935 5.55584,-7.07107 1.86233,-2.74915 3.31557,-5.75519 5.05077,-8.58629 12.84776,-20.96214 -5.50564,10.41522 10.10152,-17.67767 7.80989,-14.0578 1.21907,-1.21799 9.09137,-14.64722 1.44742,-2.46912 2.47433,-5.18065 4.04061,-7.57614 1.30948,-2.00272 3.1383,-3.62067 4.54569,-5.55584 3.57889,-4.92097 3.05116,-5.79448 7.07107,-10.10152 1.05909,-1.13474 2.39498,-1.97764 3.53553,-3.03046 1.04972,-0.96897 1.87845,-2.18565 3.03046,-3.03046 1.39779,-1.02505 3.09041,-1.58373 4.54569,-2.52538 1.41349,-0.91461 2.55267,-2.24273 4.04061,-3.03046 1.41158,-0.7473 3.03955,-0.98365 4.54568,-1.51523 1.35646,-0.47874 2.73907,-0.90274 4.04061,-1.51523 6.67305,-3.14025 2.13222,-2.15251 8.5863,-3.53553 1.45225,-0.3112 5.88067,-0.93079 7.07107,-1.01015 1.1759,-0.0784 2.35702,0 3.53553,0 1.51523,0 3.03046,0 4.54569,0 3.03046,0 6.06091,0 9.09137,0 1.68359,0 3.36718,0 5.05076,0 1.17852,0 2.36002,-0.084 3.53554,0 1.18745,0.0848 2.55673,-0.17256 3.53553,0.50507 1.16397,0.80583 6.27744,9.12756 6.56599,9.59645 6.33261,10.29049 3.34631,4.48309 7.07107,15.65737 0.79147,2.37439 1.91836,4.64296 2.52538,7.07107 0.57747,2.30986 0.73724,4.7058 1.01016,7.07106 0.67285,5.8314 0.50507,6.26871 0.50507,12.12183 0,4.54569 0,9.09138 0,13.63706 0,5.05077 0,10.10153 0,15.15229 0,1.2248 0.19815,10.50441 -0.50507,12.12183 -1.06222,2.4431 -6.11235,7.73888 -8.08123,10.10153 -2.16039,2.59247 -5.56699,7.23936 -8.08122,9.59645 -1.22824,1.15147 -2.78228,1.91194 -4.04061,3.03045 -1.77954,1.58182 -3.36717,3.36718 -5.05076,5.05077 -1.51523,1.51523 -3.03046,3.03045 -4.54569,4.54568 -1.68358,1.68359 -3.2852,3.45335 -5.05076,5.05077 -1.77437,1.60538 -3.65076,3.09782 -5.55584,4.54568 -2.30612,1.75266 -4.76341,3.30013 -7.07106,5.05077 -2.57656,1.95462 -4.9889,4.12047 -7.57615,6.06091 -2.80265,2.10199 -5.7242,4.04061 -8.5863,6.06092 -2.86209,2.0203 -5.63068,4.18006 -8.58629,6.06091 -2.60747,1.6593 -5.4381,2.9438 -8.08122,4.54569 -2.91538,1.76689 -5.71025,3.72563 -8.5863,5.55584 -2.67996,1.70543 -5.39758,3.35112 -8.08122,5.05076 -2.36722,1.49924 -4.69988,3.05272 -7.07107,4.54569 -9.59852,6.04351 -3.22041,2.14686 -11.61675,6.56599 -1.53388,0.8073 -2.95766,1.83062 -4.54569,2.52538 -1.1229,0.49127 -2.36406,0.6497 -3.53553,1.01015 -1.01771,0.31314 -2.02031,0.67344 -3.03046,1.01015 -0.50508,0.16836 -1.0587,0.23116 -1.51523,0.50508 -0.40833,0.245 -0.67343,0.67343 -1.01015,1.01015"
       id="path5321"
       inkscape:connector-curvature="0" />
    <path
       style="fill:none;fill-rule:evenodd;stroke:#000000;stroke-width:10;stroke-linecap:butt;stroke-linejoin:miter;stroke-miterlimit:4;stroke-dasharray:none;stroke-opacity:1"
       d="m 109.60155,444.75545 c 0.8418,0.33672 1.64033,0.81347 2.52538,1.01015 0.6574,0.14609 1.35207,-0.0835 2.02031,0 0.6888,0.0861 1.34687,0.33672 2.0203,0.50508 0.8418,0 1.68705,-0.0762 2.52538,0 1.01988,0.0927 2.00939,0.42653 3.03046,0.50507 1.17504,0.0904 2.35702,0 3.53554,0 2.69374,0 5.38748,0 8.08122,0 8.24958,0 16.49915,0 24.74873,0 5.89256,0 11.78512,0 17.67767,0 1.51523,0 3.03046,0 4.54569,0 2.17875,0 5.49214,0.14618 7.57614,-0.50507 1.4373,-0.44916 2.69374,-1.34687 4.04061,-2.02031 1.01016,-0.50507 2.03898,-0.97442 3.03046,-1.51523 0.86182,-0.47008 1.64733,-1.0762 2.52538,-1.51523 0.81093,-0.40546 1.77101,-0.50723 2.52538,-1.01015 0.79243,-0.52828 1.30357,-1.39316 2.02031,-2.0203 1.8177,-1.59049 3.98547,-2.66125 5.55584,-4.54569 0.38861,-0.46633 0.67343,-1.01015 1.01015,-1.51523 0.50508,-0.67343 0.97148,-1.37769 1.51523,-2.0203 1.30952,-1.54762 2.7881,-2.95158 4.04061,-4.54569 0.60651,-0.77192 0.97068,-1.70856 1.51523,-2.52538 0.46694,-0.70042 1.04828,-1.31989 1.51523,-2.02031 0.54454,-0.81681 0.92621,-1.74002 1.51523,-2.52538 0.42857,-0.57143 1.19579,-0.87635 1.51523,-1.51523 0.38391,-0.76783 0.29686,-1.69255 0.50507,-2.52538 0.12913,-0.5165 0.35882,-1.00331 0.50508,-1.51523 0.1907,-0.66745 0.39095,-1.33559 0.50507,-2.0203 0.0554,-0.33214 0,-0.67344 0,-1.01015 0,-0.8418 0,-1.68359 0,-2.52539 0,-0.16835 0,-0.33671 0,-0.50507 0,-0.16836 0.15059,-0.42979 0,-0.50508 -0.30117,-0.15058 -0.67343,0 -1.01015,0 -1.34687,0 -2.69374,0 -4.04061,0 -1.51523,0 -3.03046,0 -4.54569,0 -0.50507,0 -1.06347,-0.22588 -1.51522,0 -1.26251,0.63126 -2.4491,3.07168 -3.03046,4.04061 -3.05922,5.0987 -0.12431,-0.20674 -2.52538,5.55584 -0.43438,1.04251 -1.09579,1.98185 -1.51523,3.03046 -0.25781,0.64451 -0.33672,1.34687 -0.50508,2.0203 -0.16836,0.67344 -0.41897,1.33151 -0.50507,2.02031 -0.0835,0.66823 0,1.34687 0,2.0203 0,1.51523 0,3.03046 0,4.54569 0,1.17851 0,2.35702 0,3.53553 0,0.33672 -0.10648,0.69072 0,1.01016 0.0753,0.22587 0.33671,0.33671 0.50507,0.50507 0.33672,0.33672 0.62266,0.73338 1.01015,1.01016 3.10726,2.21946 1.86612,1.16883 5.55584,2.0203 1.19429,0.2756 2.32062,0.84816 3.53554,1.01015 1.33505,0.17801 2.69636,-0.084 4.04061,0 1.35471,0.0847 2.6856,0.42537 4.04061,0.50508 1.51261,0.089 3.03046,0 4.54568,0 1.68359,0 3.36718,0 5.05077,0 4.71404,0 9.42809,0 14.14213,0 1.51523,0 3.05108,0.2491 4.54569,0 4.11436,-0.68573 6.6531,-2.75181 10.10152,-5.05076 1.70993,-1.13996 3.35469,-2.37507 5.05077,-3.53554 1.50295,-1.02833 3.17518,-1.83127 4.54568,-3.03045 1.34687,-1.17852 2.16067,-2.89489 3.53554,-4.04062 1.68634,-1.40528 3.87676,-2.12157 5.55584,-3.53553 1.55071,-1.30586 2.65116,-3.0694 4.04061,-4.54569 2.44773,-2.60071 5.14596,-4.95902 7.57614,-7.57614 1.05619,-1.13744 2.16946,-2.24403 3.03046,-3.53553 0.83529,-1.25294 1.34687,-2.69374 2.0203,-4.04061 0.50508,-1.01016 1.01016,-2.02031 1.51523,-3.03046 0.67344,-1.34687 1.2732,-2.73317 2.02031,-4.04061 0.30117,-0.52705 0.73868,-0.97229 1.01015,-1.51523 0.61156,-1.22311 0.50508,-1.36961 0.50508,-2.52538 0,-0.16836 0,-0.33672 0,-0.50508 0,-0.16836 -0.16836,-0.50507 0,-0.50507 0.47619,0 0.55839,0.85956 1.01015,1.01015 0.31944,0.10648 0.67997,-0.066 1.01015,0 0.52206,0.10441 0.98818,0.42978 1.51523,0.50507 0.66667,0.0952 1.34687,0 2.02031,0 0.67343,0 1.34687,0 2.0203,0 1.68359,0 3.36718,0 5.05076,0 0.50508,0 1.01016,0 1.51523,0 0.50508,0 1.02523,-0.12249 1.51523,0 0.23099,0.0577 0.33672,0.33672 0.50508,0.50508 0.33671,0.33672 0.74601,0.61394 1.01015,1.01015 0.0934,0.14009 -0.0753,0.3545 0,0.50508 0.27147,0.54294 0.73868,0.97229 1.01015,1.51523 2.83322,5.66642 -2.68878,-3.82149 1.51523,3.53553 0.0654,0.11442 1.00329,1.71315 1.51523,2.02031 1.88656,1.13193 1.98559,1.00147 4.04061,1.51523 0.67343,0.16836 1.32959,0.436 2.0203,0.50507 1.00514,0.10052 2.02031,0 3.03046,0 6.39764,0 12.79527,0 19.1929,0 1.68359,0 3.36718,0 5.05076,0 0.16836,0 0.47206,-0.16509 0.50508,0 0.16509,0.82545 0,1.68359 0,2.52538 0,1.51523 0,3.03046 0,4.54569 0,1.51523 0.56274,3.13883 0,4.54569 -0.48338,1.20845 -9.59018,12.61934 -9.59645,12.6269 -5.0393,7.32928 -11.94963,12.98799 -17.67767,19.69798 -3.1925,3.73978 -5.83527,7.93222 -9.09137,11.61675 -3.15332,3.56824 -6.83189,6.63956 -10.10153,10.10153 -2.45767,2.60224 -4.74165,5.36357 -7.07107,8.08122 -1.71148,1.99673 -3.19117,4.20133 -5.05076,6.06091 -1.52455,1.52456 -3.47457,2.56951 -5.05076,4.04061 -0.96128,0.8972 -1.55608,2.14194 -2.52538,3.03046 -3.37391,3.09275 -4.15109,2.3488 -8.08122,5.05076 -1.27907,0.87937 -2.24404,2.16946 -3.53554,3.03046 -0.75437,0.50292 -1.67332,0.70032 -2.52538,1.01015 -2.76131,1.00412 -2.85993,1.02507 -5.55584,1.51523 -1.00756,0.1832 -2.05892,0.18124 -3.03045,0.50508 -1.08322,0.36107 -1.94924,1.87437 -2.52539,1.01015 -0.28016,-0.42025 -0.0457,-1.01222 0,-1.51523 0.12289,-1.35177 -0.28386,-2.93608 0.50508,-4.04061 3.78354,-5.29696 18.49899,-14.52132 21.71828,-16.66751 44.29009,-29.52673 -11.64318,8.26381 30.30458,-19.1929 4.45457,-2.91572 8.63679,-6.23866 13.13198,-9.09138 10.2838,-6.52626 18.69599,-9.91245 28.78935,-17.17259 7.06674,-5.08309 18.10411,-15.85537 24.74873,-21.71828 4.65557,-4.10785 9.40924,-8.10333 14.14214,-12.12183 4.19022,-3.55773 8.40411,-7.0876 12.62691,-10.6066 3.85848,-3.21541 7.8923,-6.2267 11.61675,-9.59645 3.35457,-3.03508 6.31869,-6.47858 9.59645,-9.59645 3.6269,-3.44997 7.64663,-6.48903 11.11168,-10.10152 4.46221,-4.6521 8.40867,-9.77281 12.62691,-14.64722 13.92712,-16.09356 6.73093,-7.37169 20.70812,-24.74873 2.70264,-3.36004 5.55951,-6.60366 8.08122,-10.10153 2.70353,-3.75005 5.06471,-7.73544 7.57615,-11.61675 3.87212,-5.98419 3.0622,-4.28304 5.55584,-10.10153 1.19773,-2.79471 1.01015,-1.72995 1.01015,-4.04061 0,-0.16836 0.16607,-0.53275 0,-0.50508 -5.30286,0.88381 -5.8748,4.20091 -9.09137,9.59645 -3.43331,5.75909 -6.94498,11.5194 -9.59645,17.67767 -4.77717,11.09536 -9.46647,31.02503 -10.6066,42.42641 -0.72035,7.2035 0,14.47885 0,21.71828 0,4.8824 0,9.76481 0,14.64721 0,4.37733 -2.01294,9.24494 0,13.13199 3.23039,6.23799 8.70172,11.41073 14.64721,15.15228 20.68009,13.0142 76.57073,36.24218 97.98479,42.42641 20.65134,5.96396 42.16539,8.40533 63.13454,13.13198 20.11631,4.53442 40.06938,9.76481 60.10407,14.64722 35.69206,7.91286 71.38412,15.82572 107.07617,23.73858"
       id="path5329"
       inkscape:connector-curvature="0" />
  </g>
</svg>
